<!-- icon666.com - MILLIONS OF FREE VECTOR ICONS --><svg version="1.1" id="Layer_1" xmlns="http://www.w3.org/2000/svg" xmlns:xlink="http://www.w3.org/1999/xlink" x="0px" y="0px" viewBox="0 0 512 512" style="enable-background:new 0 0 512 512;" xml:space="preserve"><g transform="translate(-1 -1)"><g><path d="M443.436,133.011l-41.448-66.317C400.346,29.227,363.053,1,316.733,1C293.849,1,272.664,7.901,257,20.081 C241.336,7.901,220.151,1,197.267,1c-46.319,0-83.613,28.227-85.255,65.693l-41.448,66.317 c-3.552,5.684,0.534,13.056,7.236,13.056h17.922c3.954,19.474,21.171,34.133,41.811,34.133c20.64,0,37.858-14.659,41.811-34.133 h17.922c6.702,0,10.789-7.372,7.236-13.056L163.452,67.33c2.218-7.1,16.075-15.13,33.814-15.13 c19.378,0,34.133,9.583,34.133,17.067V461.8c-23.563,0-42.667,19.104-42.667,42.667c0,4.713,3.82,8.533,8.533,8.533h119.467 c4.713,0,8.533-3.821,8.533-8.533c0-23.563-19.104-42.667-42.667-42.667V69.267c0-7.484,14.756-17.067,34.133-17.067 c17.739,0,31.596,8.03,33.814,15.13l-41.051,65.681c-3.552,5.684,0.534,13.056,7.236,13.056h17.922 c3.954,19.474,21.171,34.133,41.811,34.133c20.64,0,37.858-14.659,41.811-34.133H436.2 C442.902,146.067,446.989,138.694,443.436,133.011z M137.533,163.133c-11.145,0-20.628-7.124-24.143-17.067h48.286 C158.162,156.009,148.679,163.133,137.533,163.133z M171.667,129H103.4H93.196l32-51.2h24.674l32,51.2H171.667z M306.743,495.933 h-99.486c3.515-9.942,12.998-17.067,24.143-17.067h8.533h34.133h8.533C293.745,478.867,303.228,485.991,306.743,495.933z M316.733,35.133c-27.654,0-51.2,15.291-51.2,34.133V461.8h-17.067V69.267c0-18.842-23.546-34.133-51.2-34.133 c-23.33,0-43.736,10.883-49.547,25.6h-17.804c5.256-24.194,32.584-42.667,67.351-42.667c21.648,0,41.119,7.256,53.831,19.432 c3.3,3.161,8.505,3.161,11.805,0c12.712-12.176,32.183-19.432,53.831-19.432c34.767,0,62.095,18.472,67.351,42.667h-17.804 C360.469,46.016,340.063,35.133,316.733,35.133z M376.467,163.133c-11.145,0-20.628-7.124-24.143-17.067h48.286 C397.095,156.009,387.612,163.133,376.467,163.133z M410.6,129h-68.267H332.13l32-51.2h24.674l32,51.2H410.6z"></path></g></g></svg>