<!-- icon666.com - MILLIONS OF FREE VECTOR ICONS --><svg version="1.1" id="Layer_1" xmlns="http://www.w3.org/2000/svg" xmlns:xlink="http://www.w3.org/1999/xlink" x="0px" y="0px" viewBox="0 0 207.675 207.675" style="enable-background:new 0 0 207.675 207.675;" xml:space="preserve"><g><g><path d="M163.262,95.442c-0.66-0.999-1.779-1.602-2.977-1.602H103.66V3.563c0-1.71-1.215-3.179-2.895-3.503 c-1.673-0.31-3.352,0.599-3.984,2.187L44.077,134.979c-0.437,1.097-0.301,2.34,0.364,3.319c0.663,0.978,1.767,1.564,2.949,1.564 h63.608v64.247c0,1.692,1.191,3.151,2.848,3.493c0.24,0.049,0.481,0.073,0.719,0.073c1.402,0,2.706-0.832,3.275-2.162 L163.56,98.81C164.035,97.709,163.922,96.445,163.262,95.442z M118.13,186.732v-50.437c0-1.971-1.597-3.566-3.566-3.566H52.643 L96.528,22.207v75.199c0,1.971,1.597,3.566,3.566,3.566h54.783L118.13,186.732z"></path></g></g></svg>