<!-- icon666.com - MILLIONS OF FREE VECTOR ICONS --><svg viewBox="0 0 480 480" xmlns="http://www.w3.org/2000/svg"><path d="m48 48h32v16h-32zm0 0"></path><path d="m96 48h16v16h-16zm0 0"></path><path d="m128 48h144v16h-144zm0 0"></path><path d="m48 96h96v16h-96zm0 0"></path><path d="m160 96h32v16h-32zm0 0"></path><path d="m208 96h64v16h-64zm0 0"></path><path d="m48 144h64v16h-64zm0 0"></path><path d="m128 144h64v16h-64zm0 0"></path><path d="m208 144h16v16h-16zm0 0"></path><path d="m240 144h32v16h-32zm0 0"></path><path d="m48 192h96v16h-96zm0 0"></path><path d="m160 192h48v16h-48zm0 0"></path><path d="m48 240h32v16h-32zm0 0"></path><path d="m96 240h80v16h-80zm0 0"></path><path d="m456 176h-8v-120c-.039062-30.910156-25.089844-55.9609375-56-56h-336c-30.914062.0351562-55.9648438 25.085938-56 56v384c.0273438 22.082031 17.917969 39.972656 40 40h416c13.253906 0 24-10.746094 24-24v-256c0-13.253906-10.746094-24-24-24zm-35.710938-148.238281c7.539063 7.453125 11.761719 17.632812 11.710938 28.238281v120h-80v-120c.027344-22.082031 17.917969-39.972656 40-40 10.628906-.046875 20.824219 4.191406 28.289062 11.761719zm-404.289062 412.238281v-384c.027344-22.082031 17.917969-39.972656 40-40h296.886719c-10.800781 10.503906-16.890625 24.933594-16.886719 40v120h-72c-13.253906 0-24 10.746094-24 24v256c.027344 2.730469.523438 5.4375 1.472656 8h-201.472656c-13.253906 0-24-10.746094-24-24zm448 16c0 4.417969-3.582031 8-8 8h-192c-4.417969 0-8-3.582031-8-8v-256c0-4.417969 3.582031-8 8-8h192c4.417969 0 8 3.582031 8 8zm0 0"></path><path d="m432 208h-144c-8.835938 0-16 7.164062-16 16v32c0 8.835938 7.164062 16 16 16h144c8.835938 0 16-7.164062 16-16v-32c0-8.835938-7.164062-16-16-16zm-144 48v-32h144v32zm0 0"></path><path d="m336 280h-48c-8.835938 0-16 7.164062-16 16v48c0 8.835938 7.164062 16 16 16h48c8.835938 0 16-7.164062 16-16v-48c0-8.835938-7.164062-16-16-16zm-48 64v-48h48v48zm0 0"></path><path d="m336 368h-48c-8.835938 0-16 7.164062-16 16v48c0 8.835938 7.164062 16 16 16h48c8.835938 0 16-7.164062 16-16v-48c0-8.835938-7.164062-16-16-16zm-48 64v-48h48v48zm0 0"></path><path d="m432 280h-48c-8.835938 0-16 7.164062-16 16v136c0 8.835938 7.164062 16 16 16h48c8.835938 0 16-7.164062 16-16v-136c0-8.835938-7.164062-16-16-16zm-48 152v-136h48v136zm0 0"></path><path d="m320 304h-16v8h-8v16h8v8h16v-8h8v-16h-8zm0 0"></path><path d="m296 400h32v16h-32zm0 0"></path><path d="m392 344h32v16h-32zm0 0"></path><path d="m392 368h32v16h-32zm0 0"></path><path d="m192 240h32v16h-32zm0 0"></path><path d="m48 288h128v16h-128zm0 0"></path><path d="m192 288h32v16h-32zm0 0"></path><path d="m48 336h96v16h-96zm0 0"></path><path d="m160 336h48v16h-48zm0 0"></path><path d="m48 384h32v16h-32zm0 0"></path><path d="m96 384h80v16h-80zm0 0"></path><path d="m192 384h32v16h-32zm0 0"></path></svg>