<!-- icon666.com - MILLIONS OF FREE VECTOR ICONS --><svg version="1.1" id="Layer_1" xmlns="http://www.w3.org/2000/svg" xmlns:xlink="http://www.w3.org/1999/xlink" x="0px" y="0px" viewBox="0 0 512 512" style="enable-background:new 0 0 512 512;" xml:space="preserve"><g><g><path d="M389.12,0c-28.232,0-51.2,22.969-51.2,51.2v20.48h-256c-5.655,0-10.24,4.585-10.24,10.24v419.84 c0,5.655,4.585,10.24,10.24,10.24h307.197c28.232,0,51.203-22.969,51.203-51.2v-10.24v-30.72V51.2 C440.32,22.969,417.352,0,389.12,0z M419.84,460.8c0,16.939-13.783,30.72-30.723,30.72H92.16V92.16h245.76v358.4 c0,5.655,4.585,10.24,10.24,10.24c5.655,0,10.24-4.585,10.24-10.24c0-16.939,13.78-30.72,30.72-30.72s30.72,13.781,30.72,30.72 V460.8z M419.84,409.624c-8.562-6.441-19.205-10.264-30.72-10.264s-22.158,3.823-30.72,10.264V51.2 c0-16.939,13.78-30.72,30.72-30.72s30.72,13.781,30.72,30.72V409.624z"></path></g></g><g><g><rect x="122.88" y="286.72" width="184.32" height="20.48"></rect></g></g><g><g><rect x="256" y="163.84" width="51.2" height="20.48"></rect></g></g><g><g><rect x="256" y="215.04" width="51.2" height="20.48"></rect></g></g><g><g><rect x="122.88" y="348.16" width="184.32" height="20.48"></rect></g></g><g><g><path d="M225.28,133.12h-92.16c-5.655,0-10.24,4.585-10.24,10.24v102.4c0,5.655,4.585,10.24,10.24,10.24h92.16 c5.655,0,10.24-4.585,10.24-10.24v-102.4C235.52,137.705,230.935,133.12,225.28,133.12z M215.04,235.52h-71.68V153.6h71.68V235.52 z"></path></g></g></svg>