<!-- icon666.com - MILLIONS OF FREE VECTOR ICONS --><svg id="Capa_1" enable-background="new 0 0 512 512" viewBox="0 0 512 512" xmlns="http://www.w3.org/2000/svg"><g><path d="m497 321h-10v-105c0-56.794-46.206-103-103-103h-105.787l-27.606-27.606c-2.813-2.814-6.628-4.394-10.607-4.394h-33v-34h25c8.284 0 15-6.716 15-15s-6.716-15-15-15h-80c-8.284 0-15 6.716-15 15s6.716 15 15 15h25v34h-33c-3.979 0-7.794 1.58-10.606 4.394l-27.607 27.606h-90.787c-8.284 0-15 6.716-15 15v88c0 8.284 6.716 15 15 15h90.787l27.606 27.606c2.813 2.814 6.628 4.394 10.607 4.394h96c3.979 0 7.794-1.58 10.606-4.394l27.607-27.606h90.787v90h-9c-8.284 0-15 6.716-15 15s6.716 15 15 15h137c8.284 0 15-6.716 15-15s-6.716-15-15-15zm-467-178h67v58h-67zm203.787 90h-83.574l-23.213-23.213v-75.574l23.213-23.213h83.574l23.213 23.213v75.574zm165.213 88v-105c0-8.284-6.716-15-15-15h-97v-58h97c40.252 0 73 32.748 73 73v105z"></path><path d="m442.318 389.112c-5.787-5.482-14.85-5.482-20.637 0-8.605 8.156-36.681 36.504-36.681 58.888 0 25.916 21.084 47 47 47s47-21.084 47-47c0-22.384-28.076-50.732-36.682-58.888zm-10.318 75.888c-9.374 0-17-7.626-17-16.997.06-4.334 7.455-15.463 17-26.343 9.546 10.881 16.94 22.009 17 26.342-.001 9.373-7.627 16.998-17 16.998z"></path></g></svg>