<!-- icon666.com - MILLIONS OF FREE VECTOR ICONS --><svg id="Capa_1" enable-background="new 0 0 512 512" viewBox="0 0 512 512" xmlns="http://www.w3.org/2000/svg"><g><path d="m70.13 98.415h371.74v406.085h-371.74z" fill="#dcf5ff"></path><path d="m70.13 98.415v20.203h341.435c5.579 0 10.102 4.523 10.102 10.102v375.78h20.203v-406.085z" fill="#97e4f9"></path><path d="m256 98.415h185.87v-60.61h-185.87-185.87v60.61z" fill="#fc8086"></path><path d="m421.667 37.805v60.61h20.203v-60.61s-15.3 0-20.203 0z" fill="#fb636f"></path><g fill="#ababab"><path d="m96.394 7.5h26.264v60.61h-26.264z"></path><path d="m389.341 7.5h26.264v60.61h-26.264z" transform="matrix(-1 0 0 -1 804.947 75.61)"></path><path d="m169.631 7.5h26.264v60.61h-26.264z"></path><path d="m242.868 7.5h26.264v60.61h-26.264z"></path><path d="m316.105 7.5h26.264v60.61h-26.264z"></path></g><g><path d="m441.87 30.305h-18.765v-22.805c0-4.142-3.358-7.5-7.5-7.5h-26.264c-4.142 0-7.5 3.358-7.5 7.5v22.805h-31.972v-22.805c0-4.142-3.358-7.5-7.5-7.5h-26.265c-4.142 0-7.5 3.358-7.5 7.5v22.805h-31.972v-22.805c0-4.142-3.358-7.5-7.5-7.5h-26.265c-4.142 0-7.5 3.358-7.5 7.5v22.805h-31.972v-22.805c0-4.142-3.358-7.5-7.5-7.5h-26.265c-4.142 0-7.5 3.358-7.5 7.5v22.805h-31.972v-22.805c0-4.142-3.358-7.5-7.5-7.5h-26.263c-4.142 0-7.5 3.358-7.5 7.5v22.805h-18.765c-4.142 0-7.5 3.358-7.5 7.5v140.302c0 4.142 3.358 7.5 7.5 7.5s7.5-3.358 7.5-7.5v-72.192h356.74v70.585c0 4.142 3.358 7.5 7.5 7.5s7.5-3.358 7.5-7.5v-138.695c0-4.142-3.358-7.5-7.5-7.5zm-45.029-15.305h11.264v45.61h-11.264zm-73.237 0h11.265v45.61h-11.265zm-73.236 0h11.265v45.61h-11.265zm-73.237 0h11.265v45.61h-11.265zm-73.236 0h11.264v45.61h-11.264zm-26.265 30.305h11.265v22.805c0 4.142 3.358 7.5 7.5 7.5h26.264c4.142 0 7.5-3.358 7.5-7.5v-22.805h31.972v22.805c0 4.142 3.358 7.5 7.5 7.5h26.265c4.142 0 7.5-3.358 7.5-7.5v-22.805h31.972v22.805c0 4.142 3.358 7.5 7.5 7.5h26.265c4.142 0 7.5-3.358 7.5-7.5v-22.805h31.972v22.805c0 4.142 3.358 7.5 7.5 7.5h26.265c4.142 0 7.5-3.358 7.5-7.5v-22.805h31.972v22.805c0 4.142 3.358 7.5 7.5 7.5h26.264c4.142 0 7.5-3.358 7.5-7.5v-22.805h11.265v45.61h-356.741z"></path><path d="m441.87 204.036c-4.142 0-7.5 3.358-7.5 7.5v285.464h-356.74v-283.911c0-4.142-3.358-7.5-7.5-7.5s-7.5 3.358-7.5 7.5v291.411c0 4.142 3.358 7.5 7.5 7.5h371.74c4.142 0 7.5-3.358 7.5-7.5v-292.964c0-4.142-3.358-7.5-7.5-7.5z"></path><path d="m110.537 187.738h40.406c4.142 0 7.5-3.358 7.5-7.5v-40.406c0-4.142-3.358-7.5-7.5-7.5h-40.406c-4.142 0-7.5 3.358-7.5 7.5v40.406c0 4.142 3.358 7.5 7.5 7.5zm7.5-40.406h25.406v25.406h-25.406z"></path><path d="m181.248 152.382h10.102c4.142 0 7.5-3.358 7.5-7.5s-3.358-7.5-7.5-7.5h-10.102c-4.142 0-7.5 3.358-7.5 7.5s3.358 7.5 7.5 7.5z"></path><path d="m181.248 182.687h10.102c4.142 0 7.5-3.358 7.5-7.5s-3.358-7.5-7.5-7.5h-10.102c-4.142 0-7.5 3.358-7.5 7.5s3.358 7.5 7.5 7.5z"></path><path d="m221.654 152.382h179.809c4.142 0 7.5-3.358 7.5-7.5s-3.358-7.5-7.5-7.5h-179.809c-4.142 0-7.5 3.358-7.5 7.5s3.358 7.5 7.5 7.5z"></path><path d="m221.654 182.687h88.895c4.142 0 7.5-3.358 7.5-7.5s-3.358-7.5-7.5-7.5h-88.895c-4.142 0-7.5 3.358-7.5 7.5s3.358 7.5 7.5 7.5z"></path><path d="m103.037 250.949c0 4.142 3.358 7.5 7.5 7.5h40.406c4.142 0 7.5-3.358 7.5-7.5v-40.407c0-4.142-3.358-7.5-7.5-7.5h-40.406c-4.142 0-7.5 3.358-7.5 7.5zm15-32.907h25.406v25.407h-25.406z"></path><path d="m181.248 223.093h10.102c4.142 0 7.5-3.358 7.5-7.5s-3.358-7.5-7.5-7.5h-10.102c-4.142 0-7.5 3.358-7.5 7.5s3.358 7.5 7.5 7.5z"></path><path d="m181.248 253.398h10.102c4.142 0 7.5-3.358 7.5-7.5s-3.358-7.5-7.5-7.5h-10.102c-4.142 0-7.5 3.358-7.5 7.5s3.358 7.5 7.5 7.5z"></path><path d="m221.654 223.093h179.809c4.142 0 7.5-3.358 7.5-7.5s-3.358-7.5-7.5-7.5h-179.809c-4.142 0-7.5 3.358-7.5 7.5s3.358 7.5 7.5 7.5z"></path><path d="m221.654 253.398h88.895c4.142 0 7.5-3.358 7.5-7.5s-3.358-7.5-7.5-7.5h-88.895c-4.142 0-7.5 3.358-7.5 7.5s3.358 7.5 7.5 7.5z"></path><path d="m103.037 321.661c0 4.142 3.358 7.5 7.5 7.5h40.406c4.142 0 7.5-3.358 7.5-7.5v-40.407c0-4.142-3.358-7.5-7.5-7.5h-40.406c-4.142 0-7.5 3.358-7.5 7.5zm15-32.907h25.406v25.407h-25.406z"></path><path d="m181.248 293.805h10.102c4.142 0 7.5-3.358 7.5-7.5s-3.358-7.5-7.5-7.5h-10.102c-4.142 0-7.5 3.358-7.5 7.5s3.358 7.5 7.5 7.5z"></path><path d="m181.248 324.11h10.102c4.142 0 7.5-3.358 7.5-7.5s-3.358-7.5-7.5-7.5h-10.102c-4.142 0-7.5 3.358-7.5 7.5s3.358 7.5 7.5 7.5z"></path><path d="m221.654 293.805h179.809c4.142 0 7.5-3.358 7.5-7.5s-3.358-7.5-7.5-7.5h-179.809c-4.142 0-7.5 3.358-7.5 7.5s3.358 7.5 7.5 7.5z"></path><path d="m221.654 324.11h88.895c4.142 0 7.5-3.358 7.5-7.5s-3.358-7.5-7.5-7.5h-88.895c-4.142 0-7.5 3.358-7.5 7.5s3.358 7.5 7.5 7.5z"></path><path d="m103.037 392.372c0 4.142 3.358 7.5 7.5 7.5h40.406c4.142 0 7.5-3.358 7.5-7.5v-40.407c0-4.142-3.358-7.5-7.5-7.5h-40.406c-4.142 0-7.5 3.358-7.5 7.5zm15-32.907h25.406v25.407h-25.406z"></path><path d="m181.248 364.516h10.102c4.142 0 7.5-3.358 7.5-7.5s-3.358-7.5-7.5-7.5h-10.102c-4.142 0-7.5 3.358-7.5 7.5s3.358 7.5 7.5 7.5z"></path><path d="m181.248 394.821h10.102c4.142 0 7.5-3.358 7.5-7.5s-3.358-7.5-7.5-7.5h-10.102c-4.142 0-7.5 3.358-7.5 7.5s3.358 7.5 7.5 7.5z"></path><path d="m221.654 364.516h179.809c4.142 0 7.5-3.358 7.5-7.5s-3.358-7.5-7.5-7.5h-179.809c-4.142 0-7.5 3.358-7.5 7.5s3.358 7.5 7.5 7.5z"></path><path d="m221.654 394.821h88.895c4.142 0 7.5-3.358 7.5-7.5s-3.358-7.5-7.5-7.5h-88.895c-4.142 0-7.5 3.358-7.5 7.5s3.358 7.5 7.5 7.5z"></path><path d="m103.037 463.083c0 4.142 3.358 7.5 7.5 7.5h40.406c4.142 0 7.5-3.358 7.5-7.5v-40.407c0-4.142-3.358-7.5-7.5-7.5h-40.406c-4.142 0-7.5 3.358-7.5 7.5zm15-32.906h25.406v25.407h-25.406z"></path><path d="m181.248 435.228h10.102c4.142 0 7.5-3.358 7.5-7.5s-3.358-7.5-7.5-7.5h-10.102c-4.142 0-7.5 3.358-7.5 7.5s3.358 7.5 7.5 7.5z"></path><path d="m181.248 465.533h10.102c4.142 0 7.5-3.358 7.5-7.5s-3.358-7.5-7.5-7.5h-10.102c-4.142 0-7.5 3.358-7.5 7.5s3.358 7.5 7.5 7.5z"></path><path d="m221.654 435.228h179.809c4.142 0 7.5-3.358 7.5-7.5s-3.358-7.5-7.5-7.5h-179.809c-4.142 0-7.5 3.358-7.5 7.5s3.358 7.5 7.5 7.5z"></path><path d="m221.654 465.533h88.895c4.142 0 7.5-3.358 7.5-7.5s-3.358-7.5-7.5-7.5h-88.895c-4.142 0-7.5 3.358-7.5 7.5s3.358 7.5 7.5 7.5z"></path></g></g></svg>