<!-- icon666.com - MILLIONS OF FREE VECTOR ICONS --><svg xmlns="http://www.w3.org/2000/svg" version="1.1" viewBox="0 -38 512.00001 512"><g id="surface1"><path d="M 39.199219 426.960938 L 58.042969 426.960938 C 60.128906 426.960938 61.816406 425.273438 61.816406 423.1875 L 61.816406 195.753906 L 35.425781 195.753906 L 35.425781 423.1875 C 35.425781 425.273438 37.113281 426.960938 39.199219 426.960938 Z M 39.199219 426.960938 " style=" stroke:none;fill-rule:nonzero;fill:rgb(58.431373%,29.803922%,20.784314%);fill-opacity:1;"></path><path d="M 472.800781 426.960938 L 453.957031 426.960938 C 451.871094 426.960938 450.183594 425.273438 450.183594 423.1875 L 450.183594 195.753906 L 476.574219 195.753906 L 476.574219 423.1875 C 476.574219 425.273438 474.886719 426.960938 472.800781 426.960938 Z M 472.800781 426.960938 " style=" stroke:none;fill-rule:nonzero;fill:rgb(58.431373%,29.803922%,20.784314%);fill-opacity:1;"></path><path d="M 504.453125 154.105469 L 504.453125 213.183594 C 504.453125 216.824219 501.507812 219.78125 497.855469 219.78125 L 14.144531 219.78125 C 10.492188 219.78125 7.546875 216.824219 7.546875 213.183594 L 7.546875 154.105469 C 7.546875 150.464844 10.492188 147.503906 14.144531 147.503906 L 497.855469 147.503906 C 501.507812 147.503906 504.453125 150.464844 504.453125 154.105469 Z M 504.453125 154.105469 " style=" stroke:none;fill-rule:nonzero;fill:rgb(75.294118%,41.176471%,30.588235%);fill-opacity:1;"></path><path d="M 504.453125 154.105469 L 504.453125 181.914062 C 504.453125 185.554688 501.507812 188.511719 497.855469 188.511719 L 14.144531 188.511719 C 10.492188 188.511719 7.546875 185.554688 7.546875 181.914062 L 7.546875 154.105469 C 7.546875 150.464844 10.492188 147.503906 14.144531 147.503906 L 497.855469 147.503906 C 501.507812 147.503906 504.453125 150.464844 504.453125 154.105469 Z M 504.453125 154.105469 " style=" stroke:none;fill-rule:nonzero;fill:rgb(78.823529%,49.411765%,40.392157%);fill-opacity:1;"></path><path d="M 472.308594 148.011719 L 403.894531 148.011719 L 403.894531 72.0625 C 403.894531 70.582031 405.097656 69.382812 406.578125 69.382812 L 469.628906 69.382812 C 471.109375 69.382812 472.3125 70.582031 472.3125 72.0625 L 472.3125 148.011719 Z M 472.308594 148.011719 " style=" stroke:none;fill-rule:nonzero;fill:rgb(20.784314%,88.627451%,59.607843%);fill-opacity:1;"></path><path d="M 130.902344 72.761719 L 130.902344 147.503906 L 23.039062 147.503906 L 23.039062 72.761719 C 23.039062 71.171875 24.328125 69.886719 25.90625 69.886719 L 128.023438 69.886719 C 129.613281 69.886719 130.902344 71.175781 130.902344 72.761719 Z M 130.902344 72.761719 " style=" stroke:none;fill-rule:nonzero;fill:rgb(100%,70.980392%,17.647059%);fill-opacity:1;"></path><path d="M 130.902344 72.761719 L 130.902344 147.503906 L 43.242188 147.503906 L 43.242188 72.761719 C 43.242188 71.171875 44.53125 69.886719 46.121094 69.886719 L 128.023438 69.886719 C 129.613281 69.886719 130.902344 71.175781 130.902344 72.761719 Z M 130.902344 72.761719 " style=" stroke:none;fill-rule:nonzero;fill:rgb(100%,75.686275%,30.980392%);fill-opacity:1;"></path><path d="M 271.914062 404.464844 C 271.914062 413.394531 264.675781 420.636719 255.742188 420.636719 C 246.8125 420.636719 239.570312 413.394531 239.570312 404.464844 C 239.570312 395.53125 246.8125 388.292969 255.742188 388.292969 C 264.675781 388.292969 271.914062 395.53125 271.914062 404.464844 Z M 271.914062 404.464844 " style=" stroke:none;fill-rule:nonzero;fill:rgb(29.411765%,31.372549%,33.333333%);fill-opacity:1;"></path><path d="M 255.742188 317.785156 C 242.578125 317.785156 231.902344 307.113281 231.902344 293.945312 L 231.902344 253.257812 L 279.582031 253.257812 L 279.582031 293.945312 C 279.582031 307.113281 268.910156 317.785156 255.742188 317.785156 Z M 255.742188 317.785156 " style=" stroke:none;fill-rule:nonzero;fill:rgb(29.411765%,31.372549%,33.333333%);fill-opacity:1;"></path><path d="M 192.273438 404.464844 C 192.273438 413.394531 185.035156 420.636719 176.101562 420.636719 C 167.171875 420.636719 159.929688 413.394531 159.929688 404.464844 C 159.929688 395.53125 167.171875 388.292969 176.101562 388.292969 C 185.035156 388.292969 192.273438 395.53125 192.273438 404.464844 Z M 192.273438 404.464844 " style=" stroke:none;fill-rule:nonzero;fill:rgb(29.411765%,31.372549%,33.333333%);fill-opacity:1;"></path><path d="M 351.558594 404.464844 C 351.558594 413.394531 344.316406 420.636719 335.386719 420.636719 C 326.453125 420.636719 319.214844 413.394531 319.214844 404.464844 C 319.214844 395.53125 326.453125 388.292969 335.386719 388.292969 C 344.316406 388.292969 351.558594 395.53125 351.558594 404.464844 Z M 351.558594 404.464844 " style=" stroke:none;fill-rule:nonzero;fill:rgb(29.411765%,31.372549%,33.333333%);fill-opacity:1;"></path><path d="M 356.261719 313.917969 L 355.144531 313.917969 C 347.367188 313.917969 341.0625 307.617188 341.0625 299.839844 C 341.0625 292.0625 347.367188 285.757812 355.144531 285.757812 L 356.261719 285.757812 C 364.035156 285.757812 370.339844 292.0625 370.339844 299.839844 C 370.339844 307.617188 364.035156 313.917969 356.261719 313.917969 Z M 356.261719 313.917969 " style=" stroke:none;fill-rule:nonzero;fill:rgb(29.411765%,31.372549%,33.333333%);fill-opacity:1;"></path><path d="M 133.898438 190.679688 L 108.246094 190.679688 C 101.46875 190.679688 95.976562 185.1875 95.976562 178.410156 C 95.976562 171.632812 101.46875 166.140625 108.246094 166.140625 L 133.898438 166.140625 C 140.671875 166.140625 146.164062 171.632812 146.164062 178.410156 C 146.164062 185.1875 140.671875 190.679688 133.898438 190.679688 Z M 133.898438 190.679688 " style=" stroke:none;fill-rule:nonzero;fill:rgb(14.117647%,46.27451%,92.941176%);fill-opacity:1;"></path><path d="M 377.589844 190.679688 L 403.242188 190.679688 C 410.015625 190.679688 415.511719 185.1875 415.511719 178.410156 C 415.511719 171.632812 410.015625 166.140625 403.242188 166.140625 L 377.589844 166.140625 C 370.8125 166.140625 365.320312 171.632812 365.320312 178.410156 C 365.320312 185.1875 370.8125 190.679688 377.589844 190.679688 Z M 377.589844 190.679688 " style=" stroke:none;fill-rule:nonzero;fill:rgb(14.117647%,46.27451%,92.941176%);fill-opacity:1;"></path><path d="M 240.085938 50.179688 L 271.402344 50.179688 L 271.402344 247.519531 L 240.085938 247.519531 Z M 240.085938 50.179688 " style=" stroke:none;fill-rule:nonzero;fill:rgb(49.019608%,50.980392%,52.941176%);fill-opacity:1;"></path><path d="M 347.539062 45.855469 L 347.539062 131.8125 C 347.539062 135.683594 346.945312 139.417969 345.832031 142.921875 C 341.121094 157.851562 327.160156 168.675781 310.675781 168.675781 L 200.8125 168.675781 C 180.453125 168.675781 163.949219 152.171875 163.949219 131.8125 L 163.949219 45.855469 C 163.949219 29.445312 174.671875 15.535156 189.496094 10.757812 C 193.066406 9.613281 196.863281 8.992188 200.8125 8.992188 L 310.675781 8.992188 C 331.035156 8.992188 347.539062 25.496094 347.539062 45.855469 Z M 347.539062 45.855469 " style=" stroke:none;fill-rule:nonzero;fill:rgb(14.117647%,46.27451%,92.941176%);fill-opacity:1;"></path><path d="M 347.539062 45.855469 L 347.539062 131.8125 C 347.539062 135.683594 346.945312 139.417969 345.832031 142.921875 C 342.261719 144.074219 338.460938 144.695312 334.515625 144.695312 L 224.652344 144.695312 C 204.292969 144.695312 187.789062 128.191406 187.789062 107.832031 L 187.789062 21.882812 C 187.789062 18.011719 188.382812 14.269531 189.496094 10.757812 C 193.066406 9.613281 196.863281 8.992188 200.8125 8.992188 L 310.675781 8.992188 C 331.035156 8.992188 347.539062 25.496094 347.539062 45.855469 Z M 347.539062 45.855469 " style=" stroke:none;fill-rule:nonzero;fill:rgb(33.333333%,58.823529%,98.431373%);fill-opacity:1;"></path><path d="M 358.949219 241.75 C 358.949219 242.25 358.929688 242.753906 358.890625 243.253906 C 358.53125 248.382812 356.289062 253 352.875 256.421875 C 349.121094 260.175781 343.933594 262.5 338.203125 262.5 L 173.285156 262.5 C 161.824219 262.5 152.539062 253.207031 152.539062 241.75 C 152.539062 236.019531 154.863281 230.832031 158.613281 227.078125 C 162.367188 223.320312 167.554688 220.996094 173.285156 220.996094 L 338.203125 220.996094 C 349.664062 220.996094 358.949219 230.289062 358.949219 241.75 Z M 358.949219 241.75 " style=" stroke:none;fill-rule:nonzero;fill:rgb(14.117647%,46.27451%,92.941176%);fill-opacity:1;"></path><path d="M 358.949219 241.75 C 358.949219 242.25 358.929688 242.753906 358.890625 243.253906 L 197.125 243.253906 C 185.664062 243.253906 176.378906 233.960938 176.378906 222.503906 C 176.378906 222 176.394531 221.5 176.4375 220.996094 L 338.203125 220.996094 C 349.664062 220.996094 358.949219 230.289062 358.949219 241.75 Z M 358.949219 241.75 " style=" stroke:none;fill-rule:nonzero;fill:rgb(33.333333%,58.823529%,98.431373%);fill-opacity:1;"></path><path d="M 413.855469 155.5625 C 395.535156 155.566406 405.667969 155.566406 413.855469 155.5625 Z M 413.855469 155.5625 " style=" stroke:none;fill-rule:nonzero;fill:rgb(0%,0%,0%);fill-opacity:1;"></path><path d="M 497.855469 140.460938 L 479.855469 140.460938 L 479.855469 69.382812 C 479.855469 65.21875 476.476562 61.835938 472.308594 61.835938 L 445.648438 61.835938 L 445.648438 26.460938 C 445.648438 22.292969 442.269531 18.914062 438.101562 18.914062 C 433.933594 18.914062 430.558594 22.292969 430.558594 26.460938 L 430.558594 61.835938 L 428.304688 61.835938 L 423.503906 25.472656 C 422.957031 21.34375 419.171875 18.429688 415.035156 18.980469 C 410.902344 19.523438 407.996094 23.316406 408.542969 27.449219 L 413.082031 61.835938 L 403.894531 61.835938 C 399.730469 61.835938 396.351562 65.21875 396.351562 69.382812 L 396.351562 140.464844 L 354.382812 140.464844 C 355.109375 137.277344 355.492188 133.964844 355.492188 130.558594 L 355.492188 44.46875 C 355.492188 20.375 336.636719 0.855469 312.5625 0.03125 C 312.480469 0.0195312 312.390625 0.0195312 312.300781 0.0195312 C 308.257812 0.0195312 304.90625 3.230469 304.765625 7.3125 C 304.625 11.480469 307.882812 14.96875 312.050781 15.113281 C 327.945312 15.65625 340.402344 28.554688 340.402344 44.46875 L 340.402344 130.558594 C 340.402344 134.082031 339.777344 137.460938 338.640625 140.601562 C 334.527344 151.871094 323.691406 159.9375 311.011719 159.9375 C 247.871094 159.9375 263.171875 159.9375 200.988281 159.9375 C 188.308594 159.9375 177.472656 151.871094 173.359375 140.601562 C 172.222656 137.460938 171.597656 134.082031 171.597656 130.558594 L 171.597656 44.46875 C 171.597656 28.269531 184.777344 15.089844 200.988281 15.089844 L 282.128906 15.089844 C 286.292969 15.089844 289.675781 11.710938 289.675781 7.546875 C 289.675781 3.378906 286.292969 0 282.128906 0 L 200.988281 0 C 176.457031 0 156.507812 19.949219 156.507812 44.46875 L 156.507812 130.558594 C 156.507812 133.964844 156.894531 137.273438 157.617188 140.464844 L 138.449219 140.464844 L 138.449219 73.273438 C 138.449219 67.527344 133.773438 62.851562 128.027344 62.851562 L 25.910156 62.851562 C 20.164062 62.851562 15.488281 67.527344 15.488281 73.273438 L 15.488281 140.464844 L 14.144531 140.464844 C 6.339844 140.464844 0 146.8125 0 154.609375 L 0 213.6875 C 0 221.484375 6.339844 227.832031 14.144531 227.832031 L 27.878906 227.832031 L 27.878906 424.332031 C 27.878906 430.566406 32.960938 435.648438 39.199219 435.648438 L 58.042969 435.648438 C 64.289062 435.648438 69.359375 430.566406 69.359375 424.332031 L 69.359375 227.832031 L 113.566406 227.832031 L 113.566406 229.449219 C 113.566406 240.011719 122.160156 248.605469 132.722656 248.605469 L 146.105469 248.605469 C 149.40625 260.578125 160.402344 269.390625 173.410156 269.390625 L 224.578125 269.390625 L 224.578125 293.347656 C 224.578125 308.074219 234.761719 320.460938 248.453125 323.851562 L 248.453125 339.917969 L 188.429688 354.214844 C 176.808594 356.980469 168.679688 367.261719 168.679688 379.214844 L 168.679688 381.84375 C 163.984375 383.421875 159.929688 386.429688 157.050781 390.363281 C 154.183594 394.289062 152.484375 399.125 152.484375 404.359375 C 152.484375 417.449219 163.136719 428.101562 176.226562 428.101562 C 189.328125 428.101562 199.972656 417.449219 199.972656 404.359375 C 199.972656 393.894531 193.179688 385 183.773438 381.84375 L 183.773438 379.214844 C 183.773438 374.277344 187.132812 370.039062 191.933594 368.894531 L 248.453125 355.433594 L 248.453125 381.851562 C 239.046875 385 232.257812 393.894531 232.257812 404.359375 C 232.257812 417.449219 242.910156 428.101562 256 428.101562 C 269.089844 428.101562 279.742188 417.449219 279.742188 404.359375 C 279.742188 393.894531 272.953125 385 263.546875 381.851562 L 263.546875 355.433594 L 320.066406 368.894531 C 324.867188 370.039062 328.226562 374.277344 328.226562 379.214844 L 328.226562 381.84375 C 318.820312 385 312.027344 393.894531 312.027344 404.359375 C 312.027344 417.449219 322.671875 428.101562 335.773438 428.101562 C 348.863281 428.101562 359.515625 417.449219 359.515625 404.359375 C 359.515625 386.890625 343.417969 381.914062 343.320312 381.84375 L 343.320312 379.214844 C 343.320312 367.261719 335.191406 356.980469 323.570312 354.214844 L 263.546875 339.917969 L 263.546875 323.851562 C 277.238281 320.460938 287.421875 308.074219 287.421875 293.347656 L 287.421875 290.730469 L 304.191406 290.730469 C 306.445312 290.730469 308.46875 292.148438 309.222656 294.261719 C 312.140625 302.339844 319.867188 307.773438 328.449219 307.773438 L 335.664062 307.773438 C 337.324219 311.625 340.070312 314.90625 343.511719 317.21875 C 356.964844 326.28125 378.332031 318.058594 378.332031 299.242188 C 378.332031 274.410156 342.40625 269.253906 334.929688 292.683594 L 328.449219 292.683594 C 326.203125 292.683594 324.183594 291.261719 323.417969 289.140625 C 320.511719 281.070312 312.785156 275.640625 304.191406 275.640625 L 287.421875 275.640625 L 287.421875 269.390625 L 338.589844 269.390625 C 351.597656 269.390625 362.59375 260.578125 365.894531 248.605469 L 379.277344 248.605469 C 389.839844 248.605469 398.433594 240.011719 398.433594 229.449219 L 398.433594 227.832031 L 442.640625 227.832031 L 442.640625 424.332031 C 442.640625 430.566406 447.710938 435.648438 453.957031 435.648438 L 472.800781 435.648438 C 479.039062 435.648438 484.121094 430.566406 484.121094 424.332031 L 484.121094 393.148438 C 484.121094 388.972656 480.742188 385.601562 476.574219 385.601562 C 472.410156 385.601562 469.03125 388.972656 469.03125 393.148438 L 469.03125 420.558594 L 457.730469 420.558594 L 457.730469 227.832031 L 469.03125 227.832031 L 469.03125 362.964844 C 469.03125 367.132812 472.410156 370.511719 476.574219 370.511719 C 480.742188 370.511719 484.121094 367.132812 484.121094 362.964844 L 484.121094 227.832031 L 497.855469 227.832031 C 505.660156 227.832031 512 221.484375 512 213.6875 L 512 154.609375 C 512 146.8125 505.660156 140.460938 497.855469 140.460938 Z M 184.878906 404.359375 C 184.878906 409.128906 181.007812 413.011719 176.226562 413.011719 C 171.457031 413.011719 167.574219 409.128906 167.574219 404.359375 C 167.574219 399.578125 171.457031 395.707031 176.226562 395.707031 C 181.007812 395.707031 184.878906 399.578125 184.878906 404.359375 Z M 335.773438 395.707031 C 340.542969 395.707031 344.425781 399.578125 344.425781 404.359375 C 344.425781 409.128906 340.542969 413.011719 335.773438 413.011719 C 330.992188 413.011719 327.121094 409.128906 327.121094 404.359375 C 327.121094 399.578125 330.992188 395.707031 335.773438 395.707031 Z M 363.238281 299.242188 C 363.238281 308.007812 349.003906 308.019531 349.003906 299.242188 C 349.003906 290.496094 363.238281 290.472656 363.238281 299.242188 Z M 411.441406 76.929688 L 464.765625 76.929688 L 464.765625 140.464844 L 411.441406 140.464844 Z M 247.859375 175.03125 L 264.140625 175.03125 L 264.140625 212.726562 L 247.859375 212.726562 Z M 54.269531 420.554688 L 42.96875 420.554688 L 42.96875 227.832031 L 54.269531 227.832031 Z M 146.105469 233.515625 L 132.722656 233.515625 C 130.480469 233.515625 128.660156 231.691406 128.660156 229.449219 L 128.660156 227.832031 L 148.375 227.832031 C 147.425781 229.625 146.65625 231.523438 146.105469 233.515625 Z M 108.265625 182.363281 C 105.648438 182.363281 103.527344 180.242188 103.527344 177.625 C 103.527344 175.007812 105.648438 172.875 108.265625 172.875 L 133.960938 172.875 C 136.578125 172.875 138.699219 175.007812 138.699219 177.625 C 138.699219 180.242188 136.578125 182.363281 133.960938 182.363281 Z M 128.660156 212.742188 L 128.660156 197.457031 L 133.960938 197.457031 C 144.898438 197.457031 153.792969 188.5625 153.792969 177.625 C 153.792969 166.691406 144.898438 157.785156 133.960938 157.785156 L 108.265625 157.785156 C 97.328125 157.785156 88.433594 166.691406 88.433594 177.625 C 88.433594 188.5625 97.328125 197.457031 108.265625 197.457031 L 113.566406 197.457031 L 113.566406 212.742188 L 15.089844 212.742188 L 15.089844 155.554688 L 43.191406 155.554688 C 47.355469 155.554688 50.738281 152.175781 50.738281 148.007812 C 50.738281 143.84375 47.355469 140.464844 43.191406 140.464844 L 30.582031 140.464844 L 30.582031 77.941406 L 123.355469 77.941406 L 123.355469 140.464844 L 73.375 140.464844 C 69.210938 140.464844 65.828125 143.84375 65.828125 148.007812 C 65.828125 152.175781 69.210938 155.554688 73.375 155.554688 L 164.21875 155.554688 C 172.234375 167.300781 185.71875 175.03125 200.988281 175.03125 L 232.769531 175.03125 L 232.769531 212.730469 C 210.144531 212.730469 151.339844 212.738281 128.660156 212.742188 Z M 264.652344 404.359375 C 264.652344 409.128906 260.769531 413.011719 256 413.011719 C 251.230469 413.011719 247.347656 409.128906 247.347656 404.359375 C 247.347656 399.578125 251.230469 395.707031 256 395.707031 C 260.769531 395.707031 264.652344 399.578125 264.652344 404.359375 Z M 272.328125 293.347656 C 272.328125 302.351562 265.003906 309.675781 256 309.675781 C 246.996094 309.675781 239.671875 302.351562 239.671875 293.347656 L 239.671875 269.390625 L 272.328125 269.390625 Z M 338.589844 254.300781 L 173.410156 254.300781 C 166.117188 254.300781 160.167969 248.363281 160.167969 241.058594 C 160.167969 233.839844 165.984375 227.964844 173.164062 227.832031 L 338.835938 227.832031 C 346.015625 227.964844 351.828125 233.839844 351.828125 241.058594 C 351.832031 248.363281 345.882812 254.300781 338.589844 254.300781 Z M 383.339844 229.449219 C 383.339844 231.691406 381.519531 233.515625 379.277344 233.515625 L 365.894531 233.515625 C 365.34375 231.523438 364.574219 229.625 363.625 227.832031 L 383.339844 227.832031 Z M 378.039062 182.363281 C 375.421875 182.363281 373.300781 180.242188 373.300781 177.625 C 373.300781 175.007812 375.421875 172.875 378.039062 172.875 L 403.734375 172.875 C 406.351562 172.875 408.472656 175.007812 408.472656 177.625 C 408.472656 180.242188 406.351562 182.363281 403.734375 182.363281 Z M 496.910156 212.742188 L 398.433594 212.742188 L 398.433594 197.457031 L 403.734375 197.457031 C 414.671875 197.457031 423.566406 188.5625 423.566406 177.625 C 423.566406 166.691406 414.671875 157.785156 403.734375 157.785156 L 378.039062 157.785156 C 367.101562 157.785156 358.207031 166.691406 358.207031 177.625 C 358.207031 188.5625 367.101562 197.457031 378.039062 197.457031 L 383.339844 197.457031 L 383.339844 212.742188 C 356.386719 212.738281 303.675781 212.730469 279.230469 212.730469 L 279.230469 175.03125 L 311.011719 175.03125 C 326.28125 175.03125 339.765625 167.300781 347.78125 155.554688 C 433.292969 155.558594 425.578125 155.5625 413.855469 155.566406 C 426.023438 155.5625 450.730469 155.558594 496.910156 155.554688 Z M 496.910156 212.742188 " style=" stroke:none;fill-rule:nonzero;fill:rgb(0%,0%,0%);fill-opacity:1;"></path><path d="M 45.363281 88.835938 L 42.175781 88.835938 C 38.007812 88.835938 34.628906 92.210938 34.628906 96.378906 C 34.628906 100.546875 38.007812 103.925781 42.175781 103.925781 L 45.363281 103.925781 C 49.527344 103.925781 52.90625 100.546875 52.90625 96.378906 C 52.90625 92.210938 49.527344 88.835938 45.363281 88.835938 Z M 45.363281 88.835938 " style=" stroke:none;fill-rule:nonzero;fill:rgb(0%,0%,0%);fill-opacity:1;"></path><path d="M 45.363281 111.976562 L 42.175781 111.976562 C 38.007812 111.976562 34.628906 115.351562 34.628906 119.519531 C 34.628906 123.6875 38.007812 127.066406 42.175781 127.066406 L 45.363281 127.066406 C 49.527344 127.066406 52.90625 123.6875 52.90625 119.519531 C 52.90625 115.351562 49.527344 111.976562 45.363281 111.976562 Z M 45.363281 111.976562 " style=" stroke:none;fill-rule:nonzero;fill:rgb(0%,0%,0%);fill-opacity:1;"></path><path d="M 64.308594 103.925781 L 67.496094 103.925781 C 71.664062 103.925781 75.042969 100.546875 75.042969 96.378906 C 75.042969 92.210938 71.664062 88.835938 67.496094 88.835938 L 64.308594 88.835938 C 60.140625 88.835938 56.765625 92.210938 56.765625 96.378906 C 56.765625 100.546875 60.140625 103.925781 64.308594 103.925781 Z M 64.308594 103.925781 " style=" stroke:none;fill-rule:nonzero;fill:rgb(0%,0%,0%);fill-opacity:1;"></path><path d="M 75.042969 119.519531 C 75.042969 115.351562 71.664062 111.976562 67.496094 111.976562 L 64.308594 111.976562 C 60.140625 111.976562 56.765625 115.351562 56.765625 119.519531 C 56.765625 123.6875 60.140625 127.066406 64.308594 127.066406 L 67.496094 127.066406 C 71.664062 127.066406 75.042969 123.6875 75.042969 119.519531 Z M 75.042969 119.519531 " style=" stroke:none;fill-rule:nonzero;fill:rgb(0%,0%,0%);fill-opacity:1;"></path><path d="M 86.445312 103.925781 L 89.628906 103.925781 C 93.796875 103.925781 97.175781 100.546875 97.175781 96.378906 C 97.175781 92.210938 93.796875 88.835938 89.628906 88.835938 L 86.445312 88.835938 C 82.277344 88.835938 78.898438 92.210938 78.898438 96.378906 C 78.898438 100.546875 82.277344 103.925781 86.445312 103.925781 Z M 86.445312 103.925781 " style=" stroke:none;fill-rule:nonzero;fill:rgb(0%,0%,0%);fill-opacity:1;"></path><path d="M 86.445312 127.066406 L 89.628906 127.066406 C 93.796875 127.066406 97.175781 123.6875 97.175781 119.519531 C 97.175781 115.351562 93.796875 111.976562 89.628906 111.976562 L 86.445312 111.976562 C 82.277344 111.976562 78.898438 115.351562 78.898438 119.519531 C 78.898438 123.6875 82.277344 127.066406 86.445312 127.066406 Z M 86.445312 127.066406 " style=" stroke:none;fill-rule:nonzero;fill:rgb(0%,0%,0%);fill-opacity:1;"></path><path d="M 108.578125 103.925781 L 111.765625 103.925781 C 115.929688 103.925781 119.308594 100.546875 119.308594 96.378906 C 119.308594 92.210938 115.929688 88.835938 111.765625 88.835938 L 108.578125 88.835938 C 104.410156 88.835938 101.03125 92.210938 101.03125 96.378906 C 101.03125 100.546875 104.410156 103.925781 108.578125 103.925781 Z M 108.578125 103.925781 " style=" stroke:none;fill-rule:nonzero;fill:rgb(0%,0%,0%);fill-opacity:1;"></path><path d="M 108.578125 127.066406 L 111.765625 127.066406 C 115.929688 127.066406 119.308594 123.6875 119.308594 119.519531 C 119.308594 115.351562 115.929688 111.976562 111.765625 111.976562 L 108.578125 111.976562 C 104.410156 111.976562 101.03125 115.351562 101.03125 119.519531 C 101.03125 123.6875 104.410156 127.066406 108.578125 127.066406 Z M 108.578125 127.066406 " style=" stroke:none;fill-rule:nonzero;fill:rgb(0%,0%,0%);fill-opacity:1;"></path></g></svg>