<!-- icon666.com - MILLIONS vector ICONS FREE --><svg version="1.1" id="Layer_1" xmlns="http://www.w3.org/2000/svg" xmlns:xlink="http://www.w3.org/1999/xlink" x="0px" y="0px" viewBox="0 0 512 512" style="enable-background:new 0 0 512 512;" xml:space="preserve"><g><path style="fill:#50A5DC;" d="M352.304,502H159.696c-41.393,0-74.949-33.556-74.949-74.949v-208.36h342.508V427.05 C427.254,468.444,393.698,502,352.304,502z"></path><path style="fill:#FCE600;" d="M353.431,218.253h43.166v-67.656C396.597,72.948,333.65,10,256,10S115.403,72.948,115.403,150.597 v67.656h43.166v-67.656c0-53.81,43.622-97.431,97.431-97.431s97.431,43.622,97.431,97.431V218.253z"></path><path d="M427.254,208.691h-20.657v-58.094C406.597,67.558,339.04,0,256,0S105.403,67.558,105.403,150.598v58.094H84.746 c-5.523,0-10,4.478-10,10v208.359c0,46.841,38.108,84.949,84.95,84.949h192.608c46.841,0,84.95-38.108,84.95-84.949v-208.36 C437.254,213.169,432.777,208.691,427.254,208.691z M256,43.166c-59.238,0-107.432,48.193-107.432,107.432v57.655h-23.166v-57.655 C125.403,78.586,183.988,20,256,20s130.597,58.586,130.597,130.598v57.655h-23.166V189c0-5.522-4.477-10-10-10s-10,4.478-10,10 v19.691H168.568v-58.094c0-48.21,39.222-87.432,87.432-87.432s87.432,39.222,87.432,87.432c0,5.522,4.477,10,10,10s10-4.478,10-10 C363.432,91.359,315.238,43.166,256,43.166z M417.254,427.051c0,35.813-29.136,64.949-64.95,64.949H159.696 c-35.813,0-64.95-29.136-64.95-64.949v-198.36h322.508V427.051z"></path><g><path d="M256,411.483c-5.523,0-10-4.478-10-10V348c0-5.522,4.477-10,10-10c5.523,0,10,4.478,10,10v53.483 C266,407.006,261.523,411.483,256,411.483z"></path></g><g><path d="M123,321.483c-5.523,0-10-4.478-10-10V258c0-5.522,4.477-10,10-10c5.523,0,10,4.478,10,10v53.483 C133,317.006,128.523,321.483,123,321.483z"></path></g><g><path d="M256,324c-5.523,0-10-4.478-10-10v-13.483c0-5.522,4.477-10,10-10c5.523,0,10,4.478,10,10V314 C266,319.522,261.523,324,256,324z"></path></g></g></svg>
