<!-- icon666.com - MILLIONS vector ICONS FREE --><svg viewBox="0 0 48 48" xmlns="http://www.w3.org/2000/svg"><g id="color"><path d="m42.82 38.03a26.924 26.924 0 0 1 -.39-6.32l.95-11.04a25.533 25.533 0 0 0 .65-4.61c.22-3.93-1.41-8.8-5.56-10.58a8.209 8.209 0 0 0 -6.28-.06s-1.96-5.53-12.56-4.55c-5.14.47-9.74 2.42-12.73 7.43a19.34 19.34 0 0 0 -2.49 12.55l1.16 10.86a26.924 26.924 0 0 1 -.39 6.32 50.311 50.311 0 0 1 -3.35 8.81 19.8 19.8 0 0 0 7.97 0 24.6 24.6 0 0 0 5.08-1.67l2.99-1.37c2.18 1.77 4.35 3.04 6.1 3.04 1.73 0 3.87-1.24 6.01-2.97l3.13 1.49a25.7 25.7 0 0 0 5.09 1.48 19.8 19.8 0 0 0 7.97 0 50.311 50.311 0 0 1 -3.35-8.81z" fill="#ffc261"></path><path d="m9.816 39.189a22.685 22.685 0 0 0 .412-3.718 17 17 0 0 1 -2.2-8.331v-4.02c.377-.011.752-.046 1.128-.066l-.112-1.045a19.34 19.34 0 0 1 2.49-12.55c2.99-5.01 7.59-6.96 12.73-7.43a23.4 23.4 0 0 1 4.266-.029c-1.902-.895-4.73-1.515-8.9-1.13-5.14.47-9.74 2.42-12.73 7.43a19.34 19.34 0 0 0 -2.49 12.55l1.16 10.86a26.924 26.924 0 0 1 -.39 6.32 50.311 50.311 0 0 1 -3.35 8.81 20.523 20.523 0 0 0 5 .394 44.958 44.958 0 0 0 2.986-8.045z" fill="#ffb044"></path><path d="m37.746 46.519-3.13-1.49a48.906 48.906 0 0 0 5.49-5.27 16.842 16.842 0 0 0 2.441-3.492 28.779 28.779 0 0 1 -.117-4.557l.95-11.04c.033-.132.072-.3.1-.443a8.588 8.588 0 0 1 -3.58 1.612v5.3a16.977 16.977 0 0 1 -4.43 11.461 48.906 48.906 0 0 1 -5.49 5.27l3.13 1.49a25.7 25.7 0 0 0 5.09 1.48q.369.085.737.152a11.889 11.889 0 0 1 -1.191-.473z" fill="#ffb044"></path><path d="m39.9 17.95v9.19a16.977 16.977 0 0 1 -4.43 11.46 49.706 49.706 0 0 1 -5.26 5.09c-.01.01-.16.13-.23.18-2.14 1.73-4.28 2.97-6.01 2.97-1.75 0-3.92-1.27-6.1-3.04a50.119 50.119 0 0 1 -5.4-5.2 16.987 16.987 0 0 1 -4.44-11.46v-4.02c.87-.02 1.75-.08 2.62-.15a46.833 46.833 0 0 0 17.56-5.13 15.214 15.214 0 0 0 3.47-2.34.01.01 0 0 1 .01-.01 8.267 8.267 0 0 0 .9-1.06c-.05.2-.1.41-.15.61a8.552 8.552 0 0 1 -4.43 5.76c4.43.61 9.4.26 11.65-2.54a2.34 2.34 0 0 0 .24-.31z" fill="#ffefbc"></path><path d="m26.76 45.059c-1.75 0-3.92-1.27-6.1-3.04a50.119 50.119 0 0 1 -5.4-5.2 16.987 16.987 0 0 1 -4.44-11.46v-2.408c-.057 0-.113.014-.17.019-.87.07-1.75.13-2.62.15v4.02a16.987 16.987 0 0 0 4.44 11.46 50.119 50.119 0 0 0 5.4 5.2c2.18 1.77 4.35 3.04 6.1 3.04 1.573 0 3.487-1.031 5.43-2.519a6.2 6.2 0 0 1 -2.64.738z" fill="#ffe6a2"></path><path d="m8.032 23.85v7.86h-2.97a.57.57 0 0 1 -.13-.01 1.865 1.865 0 0 1 -1.75-1.87v-4.1a1.878 1.878 0 0 1 1.88-1.88z" fill="#ff6e56"></path><path d="m8.03 25.24v6.47h-2.97a.57.57 0 0 1 -.13-.01 1.57 1.57 0 0 1 -.07-.49v-4.09a1.878 1.878 0 0 1 1.88-1.88z" fill="#ee6148"></path><g fill="#ff6e56"><circle cx="28.041" cy="38.146" r="2.036"></circle><path d="m30.08 38.15a1.976 1.976 0 0 1 -.08.55 1.952 1.952 0 0 1 -.87.2 2.042 2.042 0 0 1 -2.04-2.04 1.976 1.976 0 0 1 .08-.55 2 2 0 0 1 2.1.22 1.979 1.979 0 0 1 .78 1.28 1.87 1.87 0 0 1 .03.34z"></path><path d="m39.905 23.85v7.86h2.97a.57.57 0 0 0 .13-.01 1.865 1.865 0 0 0 1.75-1.87v-4.1a1.878 1.878 0 0 0 -1.88-1.88z"></path></g><path d="m39.907 25.24v6.47h2.97a.57.57 0 0 0 .13-.01 1.57 1.57 0 0 0 .07-.49v-4.09a1.878 1.878 0 0 0 -1.88-1.88z" fill="#ee6148"></path></g><g id="outline"><path d="m46.847 46.508a50 50 0 0 1 -3.3-8.627 25.139 25.139 0 0 1 -.4-5.45 2.628 2.628 0 0 0 2.352-2.6v-4.097a2.635 2.635 0 0 0 -2.626-2.634h-2.219v-5.15a.75.75 0 0 0 -1.366-.428c-1.831 2.639-6.109 2.912-9.1 2.739a10.241 10.241 0 0 0 3.135-5.675.749.749 0 0 0 -1.353-.586 11 11 0 0 1 -4.112 3.176 46.075 46.075 0 0 1 -19.847 5.19.746.746 0 0 0 -.725.736h-2.223a2.634 2.634 0 0 0 -2.631 2.632v4.093a2.626 2.626 0 0 0 2.415 2.61 25.161 25.161 0 0 1 -.4 5.444 50 50 0 0 1 -3.3 8.627.75.75 0 0 0 .5 1.059 20.671 20.671 0 0 0 4.3.435 17.768 17.768 0 0 0 4.015-.435 24.415 24.415 0 0 0 5.238-1.719.75.75 0 1 0 -.629-1.361 23.06 23.06 0 0 1 -4.942 1.619 18.706 18.706 0 0 1 -6.7.165 44.893 44.893 0 0 0 2.995-8.087 26.324 26.324 0 0 0 .43-5.725h1.679c.025 0 .046-.012.07-.014a17.624 17.624 0 0 0 3.81 6.656c5.146 5.631 9.2 8.486 12.056 8.486s6.908-2.855 12.055-8.486a17.616 17.616 0 0 0 3.748-6.472l.32-.17h1.559a26.324 26.324 0 0 0 .43 5.725 44.981 44.981 0 0 0 2.995 8.088 18.6 18.6 0 0 1 -6.7-.166l-.6-.139a21.461 21.461 0 0 1 -4.354-1.29.751.751 0 0 0 -.629 1.363 22.8 22.8 0 0 0 4.644 1.388l.6.139a17.774 17.774 0 0 0 4.011.433 20.671 20.671 0 0 0 4.3-.435.75.75 0 0 0 .5-1.059zm-39.564-19.363v3.814h-2.22a1.133 1.133 0 0 1 -1.131-1.132v-4.093a1.132 1.132 0 0 1 1.131-1.134h2.22zm31.871-3.293v3.293a16.291 16.291 0 0 1 -.615 4.441l-8.563 4.563a2.9 2.9 0 1 0 .752 1.3l7.033-3.749a16.148 16.148 0 0 1 -2.844 4.388c-4.715 5.158-8.6 8-10.948 8s-6.236-2.84-10.948-8a16.172 16.172 0 0 1 -4.238-10.943v-3.307a47.618 47.618 0 0 0 19.769-5.338 20.838 20.838 0 0 0 2.217-1.3 7.023 7.023 0 0 1 -3.083 2.929.75.75 0 0 0 .225 1.418c2.467.337 7.981.734 11.243-1.751zm-9.827 14.294a1.286 1.286 0 1 1 -1.286-1.286 1.288 1.288 0 0 1 1.286 1.286zm11.327-7.187v-6.359h2.219a1.133 1.133 0 0 1 1.133 1.132v4.093a1.134 1.134 0 0 1 -1.133 1.132z"></path><path d="m4.411 21.6a.94.94 0 0 0 .1-.007.75.75 0 0 0 .64-.846 18.729 18.729 0 0 1 2.39-12.063c2.534-4.236 6.512-6.549 12.159-7.071 9.8-.913 11.71 3.858 11.784 4.055a.753.753 0 0 0 1.022.431 7.562 7.562 0 0 1 5.669.066c3.8 1.636 5.31 6.253 5.1 9.85a24.4 24.4 0 0 1 -.628 4.473.75.75 0 0 0 1.455.363 25.89 25.89 0 0 0 .671-4.75c.244-4.239-1.52-9.382-6.007-11.314a9.012 9.012 0 0 0 -6.209-.3c-.935-1.566-4.081-5.191-13-4.363-6.157.564-10.505 3.114-13.303 7.79a20.24 20.24 0 0 0 -2.585 13.042.75.75 0 0 0 .742.644z"></path></g></svg>