<!-- icon666.com - MILLIONS vector ICONS FREE --><svg xmlns="http://www.w3.org/2000/svg" xmlns:xlink="http://www.w3.org/1999/xlink" version="1.1" id="Filled_line" x="0px" y="0px" viewBox="0 0 200 200" style="enable-background:new 0 0 200 200;" xml:space="preserve"><style type="text/css"> .st0{fill:#26D0DD;} .st1{fill:#F9E662;} .st2{fill:#FFFFFF;} .st3{fill:#024A5B;} </style><g><path class="st0" d="M175.1,90.4l-66.7-70.3c-3.3-3.5-8.8-3.6-12.2-0.3c-0.1,0.1-0.2,0.2-0.3,0.3C73.6,43.6,51.3,67,29.1,90.4 c-1.7,1.8-1.7,4.7,0.2,6.5c0.9,0.8,2,1.3,3.2,1.3h7.1v62.4c0,4.9,4,8.8,8.8,8.8h107.4c4.9,0,8.8-4,8.8-8.8V98.2h7.1 c2.2,0,4.1-1.6,4.5-3.7C176.5,93,176.1,91.5,175.1,90.4z"></path></g><g><path class="st1" d="M126.3,169.3H77.8v-63c0-3.7,3-6.7,6.7-6.7c0,0,0,0,0,0h35.1c3.7,0,6.7,3,6.7,6.7V169.3z"></path></g><g><path class="st2" d="M89.2,48c-1.5,0-2.8-1.2-2.8-2.8c0-0.7,0.3-1.4,0.7-1.9l2.3-2.5c1-1.1,2.8-1.2,3.9-0.1c1.1,1,1.2,2.8,0.1,3.9 l-2.3,2.5C90.7,47.7,89.9,48,89.2,48z"></path></g><g><path class="st2" d="M63.6,75.4c-1.5,0-2.8-1.2-2.8-2.8c0-0.7,0.3-1.4,0.7-1.9L82,48.9c1-1.1,2.8-1.2,3.9-0.1 c1.1,1,1.2,2.8,0.1,3.9L65.6,74.5C65.1,75.1,64.4,75.4,63.6,75.4z"></path></g><g><path class="st3" d="M155.8,171.4H48.4c-6,0-10.8-4.9-10.8-10.8V98.2c0-1.1,0.9-2,2-2s2,0.9,2,2v62.4c0,3.8,3.1,6.8,6.8,6.8h107.4 c3.7,0,6.8-3.1,6.8-6.8V98.2c0-1.1,0.9-2,2-2s2,0.9,2,2v62.4C166.6,166.5,161.7,171.4,155.8,171.4z"></path></g><g><path class="st3" d="M39.5,100.2h-7.1c-1.7,0-3.3-0.6-4.5-1.8c-1.3-1.2-2-2.8-2-4.6c0-1.8,0.6-3.4,1.8-4.7 c22.2-23.4,44.5-46.9,66.7-70.3c0.1-0.1,0.3-0.3,0.4-0.4c4.3-4,11-3.9,15.1,0.4L176.5,89c1.5,1.5,2.1,3.7,1.7,5.8 c-0.6,3.1-3.3,5.4-6.4,5.4c0,0,0,0,0,0h-7.1c-1.1,0-2-0.9-2-2s0.9-2,2-2h7.1c0,0,0,0,0,0c1.2,0,2.3-0.9,2.5-2.1 c0.2-0.8-0.1-1.7-0.7-2.2l-66.7-70.3c-2.5-2.7-6.8-2.8-9.4-0.2c-0.1,0.1-0.2,0.2-0.2,0.2C75,45,52.8,68.4,30.5,91.8 c-0.5,0.5-0.7,1.2-0.7,1.8c0,0.7,0.3,1.3,0.8,1.8c0.5,0.5,1.1,0.7,1.8,0.7h7.1c1.1,0,2,0.9,2,2S40.6,100.2,39.5,100.2z"></path></g><g><path class="st3" d="M126.3,171.3H77.8c-1.1,0-2-0.9-2-2v-63c0-4.8,3.9-8.7,8.7-8.7h35.1c4.8,0,8.7,3.9,8.7,8.7v63 C128.3,170.4,127.4,171.3,126.3,171.3z M79.8,167.3h44.5v-61c0-2.6-2.1-4.7-4.7-4.7H84.5c-2.6,0-4.7,2.1-4.7,4.7V167.3z"></path></g></svg>
