<!-- icon666.com - MILLIONS vector ICONS FREE --><svg viewBox="0 -24 512 512" xmlns="http://www.w3.org/2000/svg"><path d="m467.367188 398.707031h-154.453126c-12.398437 0-22.449218-10.050781-22.449218-22.449219v-154.453124c0-12.398438 10.050781-22.449219 22.449218-22.449219h154.453126c12.398437 0 22.449218 10.050781 22.449218 22.449219v154.453124c0 12.398438-10.050781 22.449219-22.449218 22.449219zm0 0" fill="#ad6327"></path><path d="m359.515625 199.351562v40.183594c0 8.472656 6.933594 15.40625 15.410156 15.40625h30.429688c8.472656 0 15.40625-6.933594 15.40625-15.40625v-40.183594zm0 0" fill="#f99c18"></path><path d="m268.011719 398.707031h-154.453125c-12.398438 0-22.449219-10.050781-22.449219-22.449219v-154.453124c0-12.398438 10.050781-22.449219 22.449219-22.449219h154.453125c12.398437 0 22.449219 10.050781 22.449219 22.449219v154.453124c0 12.398438-10.050782 22.449219-22.449219 22.449219zm0 0" fill="#d1833d"></path><path d="m160.164062 199.351562v40.265626h.003907c.046875 8.4375 6.957031 15.324218 15.402343 15.324218h30.429688c8.449219 0 15.359375-6.886718 15.40625-15.324218h.003906v-40.265626zm0 0" fill="#fdc578"></path><path d="m367.691406 199.351562h-154.457031c-12.398437 0-22.449219-10.050781-22.449219-22.449218v-154.453125c0-12.398438 10.050782-22.449219 22.449219-22.449219h154.457031c12.398438 0 22.449219 10.050781 22.449219 22.449219v154.453125c0 12.398437-10.050781 22.449218-22.449219 22.449218zm0 0" fill="#ad6327"></path><path d="m213.234375 0c-12.398437 0-22.449219 10.050781-22.449219 22.449219v154.453125c0 12.398437 10.050782 22.449218 22.449219 22.449218h77.226563v-199.351562zm0 0" fill="#d1833d"></path><path d="m259.839844 0v40.179688c0 8.476562 6.933594 15.410156 15.40625 15.410156h30.433594c8.472656 0 15.40625-6.933594 15.40625-15.410156v-40.179688zm0 0" fill="#f99c18"></path><path d="m259.839844 0v40.179688c0 8.476562 6.933594 15.410156 15.40625 15.410156h15.214844v-55.589844zm0 0" fill="#fdc578"></path><path d="m75.699219 381.585938c-8.507813 0-15.410157-6.898438-15.410157-15.410157v-245.101562h-44.878906c-8.511718 0-15.410156-6.898438-15.410156-15.410157 0-8.507812 6.898438-15.40625 15.410156-15.40625h60.289063c8.511719 0 15.410156 6.898438 15.410156 15.40625v260.515626c0 8.507812-6.898437 15.40625-15.410156 15.40625zm0 0" fill="#7987a9"></path><path d="m496.589844 429.523438h-379.953125c-8.507813 0-15.40625-6.898438-15.40625-15.40625 0-8.511719 6.898437-15.410157 15.40625-15.410157h379.953125c8.511718 0 15.410156 6.898438 15.410156 15.410157 0 8.507812-6.898438 15.40625-15.410156 15.40625zm0 0" fill="#576993"></path><path d="m116.636719 398.707031c-8.507813 0-15.40625 6.898438-15.40625 15.410157 0 8.507812 6.898437 15.40625 15.40625 15.40625h173.824219v-30.816407zm0 0" fill="#7987a9"></path><path d="m75.699219 463.300781c-27.121094 0-49.1875-22.0625-49.1875-49.183593 0-27.125 22.066406-49.1875 49.1875-49.1875 27.121093 0 49.1875 22.0625 49.1875 49.1875 0 27.121093-22.066407 49.183593-49.1875 49.183593zm0 0" fill="#f56d6d"></path><path d="m75.699219 395.746094c-10.128907 0-18.367188 8.242187-18.367188 18.371094 0 10.128906 8.238281 18.367187 18.367188 18.367187 10.128906 0 18.371093-8.238281 18.371093-18.367187 0-10.128907-8.242187-18.371094-18.371093-18.371094zm0 0" fill="#fff"></path></svg>