<!-- icon666.com - MILLIONS OF FREE VECTOR ICONS --><svg viewBox="-40 0 496 496" xmlns="http://www.w3.org/2000/svg"><path d="m309.863281 418.128906c45.445313-145.394531-62.585937-264.738281-17.128906-410.128906-108.855469 0-163.28125 0-272.136719 0-48.023437 153.609375 60.023438 272.902344 17.128906 410.128906zm0 0" fill="#d4dedd"></path><path d="m309.855469 426.136719h-272.128907c-2.542968 0-4.9375-1.207031-6.449218-3.257813-1.503906-2.054687-1.953125-4.703125-1.183594-7.136718 20.183594-64.574219 5.855469-125.0625-9.3125-189.09375-16.304688-68.816407-33.160156-139.96875-7.816406-221.039063 1.039062-3.335937 4.136718-5.609375 7.632812-5.609375h272.136719c2.542969 0 4.933594 1.207031 6.449219 3.257812 1.503906 2.054688 1.949218 4.703126 1.183594 7.132813-22.074219 70.601563-7.121094 133.855469 8.71875 200.832031 15.625 66.128906 31.792968 134.503906 8.40625 209.296875-1.039063 3.335938-4.132813 5.617188-7.636719 5.617188zm-261.523438-16h255.570313c19.589844-68.359375 5.015625-130.03125-10.402344-195.226563-14.894531-63.0625-30.285156-128.148437-11.40625-198.910156h-255.550781c-21.546875 74.625-5.617188 141.871094 9.808593 206.960938 14.238282 60.117187 28.941407 122.183593 11.980469 187.175781zm0 0" fill="#173851"></path><path d="m396.605469 488c45.449219-145.398438-62.582031-264.734375-17.128907-410.128906-108.847656 0-163.269531 0-272.125 0-48.027343 153.609375 60.015626 272.90625 17.125 410.128906zm0 0" fill="#fff"></path><path d="m396.605469 496h-272.128907c-2.542968 0-4.933593-1.207031-6.445312-3.257812-1.503906-2.054688-1.953125-4.703126-1.183594-7.125 20.175782-64.585938 5.847656-125.066407-9.3125-189.097657-16.304687-68.816406-33.167968-139.976562-7.816406-221.046875 1.039062-3.335937 4.136719-5.609375 7.632812-5.609375h272.132813c2.546875 0 4.9375 1.207031 6.449219 3.265625 1.503906 2.046875 1.953125 4.695313 1.183594 7.128906-22.078126 70.605469-7.121094 133.863282 8.710937 200.839844 15.632813 66.125 31.792969 134.503906 8.417969 209.277344-1.046875 3.351562-4.136719 5.625-7.640625 5.625zm-261.519531-16h255.566406c19.59375-68.359375 5.015625-130.023438-10.398438-195.214844-14.902344-63.058594-30.296875-128.152344-11.417968-198.914062h-255.542969c-21.542969 74.632812-5.613281 141.882812 9.800781 206.96875 14.238281 60.113281 28.945312 122.175781 11.992188 187.160156zm0 0" fill="#173851"></path><path d="m145.214844 472c13.582031-63.160156-.585938-122.96875-14.335938-181.007812-14.777344-62.359376-30.023437-126.753907-11.496094-197.128907h239.238282c-15.488282 68.722657-.597656 131.679688 13.832031 192.761719 14.722656 62.253906 28.664063 121.246094 12.082031 185.375zm0 0" fill="#28a7e6"></path><g fill="#fff"><path d="m327.667969 156.144531h-184.742188c-4.425781 0-8-3.578125-8-8 0-4.425781 3.574219-8 8-8h184.742188c4.425781 0 8 3.574219 8 8 0 4.421875-3.574219 8-8 8zm0 0"></path><path d="m327.667969 209.039062h-184.742188c-4.425781 0-8-3.574218-8-8 0-4.421874 3.574219-8 8-8h184.742188c4.425781 0 8 3.578126 8 8 0 4.425782-3.574219 8-8 8zm0 0"></path><path d="m338.199219 261.929688h-184.746094c-4.421875 0-8-3.578126-8-8 0-4.425782 3.578125-8 8-8h184.753906c4.421875 0 8 3.574218 8 8 0 4.421874-3.585937 8-8.007812 8zm0 0"></path><path d="m338.199219 314.832031h-184.746094c-4.421875 0-8-3.574219-8-8s3.578125-8 8-8h184.753906c4.421875 0 8 3.574219 8 8s-3.585937 8-8.007812 8zm0 0"></path><path d="m359.253906 367.726562h-184.734375c-4.425781 0-8-3.574218-8-8 0-4.421874 3.574219-8 8-8h184.742188c4.425781 0 8 3.578126 8 8 0 4.425782-3.582031 8-8.007813 8zm0 0"></path><path d="m359.253906 420.625h-184.734375c-4.425781 0-8-3.578125-8-8 0-4.425781 3.574219-8 8-8h184.742188c4.425781 0 8 3.574219 8 8 0 4.421875-3.582031 8-8.007813 8zm0 0"></path></g></svg>